<?xml version="1.0" encoding="utf-8"?>
<!-- Generator: Adobe Illustrator 22.1.0, SVG Export Plug-In . SVG Version: 6.00 Build 0)  -->
<svg version="1.1" id="Layer_1" xmlns="http://www.w3.org/2000/svg" xmlns:xlink="http://www.w3.org/1999/xlink" x="0px" y="0px"
	 viewBox="0 0 479.1 246.1" style="enable-background:new 0 0 479.1 246.1;" xml:space="preserve">
<style type="text/css">
	.st0{enable-background:new    ;}
	.st1{fill:#F9D5BC;}
	.st2{fill:#F3AB7A;}
	.st3{fill:#ED7C2F;}
</style>
<title>Asset 1</title>
<g id="Layer_2_1_">
	<g id="Layer_1-2">
		<g class="st0">
			<path class="st1" d="M9.1,192.6c0.9,0,1.7-0.1,2.4-0.2s1.4-0.4,1.9-0.7c0.6-0.4,1.1-0.8,1.4-1.3c0.3-0.5,0.4-1,0.3-1.5
				c0-0.7-0.3-1.9-0.9-3.4c-0.9-2.2-1.4-4-1.4-5.4c0-1.4,0.3-2.6,0.9-3.6c0.7-1.2,1.7-2.2,3.1-2.9c2.1-1.2,4.8-1.8,8-1.8h0v4.6h0
				c-2.2,0-3.9,0.4-5.1,1.1c-0.6,0.3-1.1,0.8-1.4,1.3c-0.2,0.4-0.3,0.9-0.3,1.4c0,0.7,0.3,1.9,1,3.5c0.9,2.2,1.4,4,1.4,5.3
				c0,1.5-0.3,2.7-0.9,3.8c-0.5,0.9-1.2,1.6-2,2.3c0.9,0.7,1.5,1.4,2,2.3c0.7,1.1,1,2.4,0.9,3.8c0,1.3-0.4,3.1-1.4,5.3
				c-0.7,1.6-1,2.7-1,3.5c0,0.5,0.1,1,0.3,1.4c0.3,0.5,0.8,0.9,1.4,1.3c1.3,0.7,3,1.1,5.1,1.1h0v4.6h0c-3.3,0-6-0.6-8-1.8
				c-1.4-0.8-2.4-1.8-3.1-2.9c-0.6-1-0.9-2.2-0.9-3.6c0-1.4,0.5-3.2,1.4-5.4c0.7-1.6,1-2.7,0.9-3.4c0-0.5-0.1-1-0.3-1.5
				c-0.3-0.5-0.8-1-1.4-1.3c-0.5-0.3-1.2-0.5-1.9-0.7s-1.5-0.2-2.4-0.2V192.6z"/>
			<path class="st1" d="M50.6,188c0-2,0.4-3.8,1.2-5.2c0.7-1.2,1.7-2.2,2.9-2.9c1.4-0.8,3-1.2,5-1.2c1.9,0,3.6,0.4,5,1.2
				c1.2,0.7,2.2,1.7,2.9,2.9c0.5,0.9,0.8,1.8,1,2.8l-5,1.2c-0.1-0.6-0.3-1.1-0.6-1.6c-0.4-0.6-0.8-1.1-1.4-1.4
				c-0.6-0.3-1.3-0.5-2.1-0.5s-1.4,0.2-2,0.5c-0.6,0.3-1,0.8-1.3,1.4c-0.5,0.7-0.7,1.7-0.7,2.8v13.5c0,1.1,0.2,2.1,0.7,2.8
				c0.3,0.6,0.8,1.1,1.3,1.4c0.6,0.3,1.2,0.5,2,0.5s1.5-0.2,2.1-0.5c0.5-0.3,1-0.8,1.4-1.4c0.3-0.5,0.4-1.1,0.6-1.6l5,1.2
				c-0.2,1-0.5,1.9-1,2.8c-0.7,1.3-1.7,2.2-2.9,2.9c-1.4,0.8-3,1.2-5,1.2c-1.9,0-3.6-0.4-5-1.2c-1.2-0.7-2.2-1.7-2.9-2.9
				c-0.8-1.5-1.2-3.2-1.2-5.2V188z"/>
			<path class="st1" d="M78.5,179.1h5.1c4.1,13.2,6.2,22.6,6.2,28.2v3.2h-5.1v-3.2c0-1.1-0.1-2.2-0.2-3.5h-6.9
				c-0.1,1.3-0.2,2.5-0.2,3.5v3.2h-5.1v-3.2C72.3,201.6,74.4,192.2,78.5,179.1z M84,199.1c-0.6-3.8-1.6-8.3-2.9-13.6
				c-1.3,5.3-2.3,9.8-2.9,13.6H84z"/>
			<path class="st1" d="M93.7,179.1h5.5l7.7,23.5c-0.1-0.5-0.1-1-0.2-1.6c-0.4-3.4-0.6-6.5-0.6-9.4v-12.6h5.1v31.4h-5.5L98,186.9
				c0.1,0.5,0.1,1,0.2,1.6c0.4,3.4,0.6,6.5,0.6,9.4v12.6h-5.1V179.1z"/>
			<path class="st1" d="M136.4,179.1h5.1v1.9c0,2.8,0.7,5.7,2.2,8.6l1.4,2.8l1.4-2.8c1.5-2.9,2.2-5.7,2.2-8.6v-1.9h5.1v1.9
				c0,3.5-0.9,7-2.7,10.7l-3.5,6.8v12h-5.1v-12l-3.5-6.8c-1.8-3.6-2.7-7.2-2.7-10.7V179.1z"/>
			<path class="st1" d="M158.7,182.8c0.7-1.2,1.7-2.2,2.9-2.9c1.4-0.8,3-1.2,4.9-1.2c1.9,0,3.5,0.4,4.9,1.2c1.2,0.7,2.2,1.7,2.9,2.9
				c0.8,1.5,1.2,3.2,1.2,5.2v13.5c0,2-0.4,3.8-1.2,5.2c-0.7,1.2-1.7,2.2-2.9,2.9c-1.4,0.8-3,1.2-4.9,1.2c-1.9,0-3.5-0.4-4.9-1.2
				c-1.2-0.7-2.2-1.7-2.9-2.9c-0.8-1.5-1.2-3.2-1.2-5.2V188C157.4,186,157.9,184.3,158.7,182.8z M163.3,204.4c0.3,0.6,0.8,1,1.3,1.3
				c0.6,0.3,1.2,0.5,2,0.5c0.7,0,1.4-0.2,2-0.5c0.6-0.3,1-0.8,1.3-1.3c0.5-0.8,0.7-1.7,0.7-2.9V188c0-1.1-0.2-2.1-0.7-2.9
				c-0.3-0.6-0.8-1-1.3-1.3c-0.6-0.3-1.2-0.5-2-0.5c-0.7,0-1.4,0.2-2,0.5c-0.6,0.3-1,0.8-1.3,1.3c-0.5,0.8-0.7,1.7-0.7,2.9v13.5
				C162.6,202.6,162.8,203.6,163.3,204.4z"/>
			<path class="st1" d="M179.2,201.5v-22.4h5.1v22.4c0,1.2,0.2,2.2,0.7,3c0.3,0.6,0.8,1,1.3,1.3c0.5,0.3,1,0.4,1.7,0.4
				c0.7,0,1.2-0.1,1.7-0.4c0.5-0.3,0.9-0.7,1.3-1.3c0.5-0.8,0.7-1.8,0.7-3v-22.4h5.1v22.4c0,2.1-0.4,3.8-1.3,5.3
				c-0.7,1.2-1.6,2.2-2.9,2.9c-1.3,0.7-2.8,1.1-4.6,1.1c-1.8,0-3.3-0.4-4.6-1.1c-1.2-0.7-2.2-1.7-2.9-2.9
				C179.6,205.3,179.2,203.6,179.2,201.5z"/>
			<path class="st1" d="M221.5,188c0-2,0.4-3.8,1.2-5.2c0.7-1.2,1.7-2.2,2.9-2.9c1.4-0.8,3-1.2,5-1.2c1.9,0,3.6,0.4,5,1.2
				c1.2,0.7,2.2,1.7,2.9,2.9c0.5,0.9,0.8,1.8,1,2.8l-5,1.2c-0.1-0.6-0.3-1.1-0.6-1.6c-0.4-0.6-0.8-1.1-1.4-1.4
				c-0.6-0.3-1.3-0.5-2.1-0.5s-1.4,0.2-2,0.5c-0.6,0.3-1,0.8-1.3,1.4c-0.5,0.7-0.7,1.7-0.7,2.8v13.5c0,1.1,0.2,2.1,0.7,2.8
				c0.3,0.6,0.8,1.1,1.3,1.4c0.6,0.3,1.2,0.5,2,0.5s1.5-0.2,2.1-0.5c0.5-0.3,1-0.8,1.4-1.4c0.3-0.5,0.4-1.1,0.6-1.6l5,1.2
				c-0.2,1-0.5,1.9-1,2.8c-0.7,1.3-1.7,2.2-2.9,2.9c-1.4,0.8-3,1.2-5,1.2c-1.9,0-3.6-0.4-5-1.2c-1.2-0.7-2.2-1.7-2.9-2.9
				c-0.8-1.5-1.2-3.2-1.2-5.2V188z"/>
			<path class="st1" d="M244.1,182.8c0.7-1.2,1.7-2.2,2.9-2.9c1.4-0.8,3-1.2,4.9-1.2c1.9,0,3.5,0.4,4.9,1.2c1.2,0.7,2.2,1.7,2.9,2.9
				c0.8,1.5,1.2,3.2,1.2,5.2v13.5c0,2-0.4,3.8-1.2,5.2c-0.7,1.2-1.7,2.2-2.9,2.9c-1.4,0.8-3,1.2-4.9,1.2c-1.9,0-3.5-0.4-4.9-1.2
				c-1.2-0.7-2.2-1.7-2.9-2.9c-0.8-1.5-1.2-3.2-1.2-5.2V188C242.9,186,243.3,184.3,244.1,182.8z M248.7,204.4c0.3,0.6,0.8,1,1.3,1.3
				c0.6,0.3,1.2,0.5,2,0.5c0.7,0,1.4-0.2,2-0.5c0.6-0.3,1-0.8,1.3-1.3c0.5-0.8,0.7-1.7,0.7-2.9V188c0-1.1-0.2-2.1-0.7-2.9
				c-0.3-0.6-0.8-1-1.3-1.3c-0.6-0.3-1.2-0.5-2-0.5c-0.7,0-1.4,0.2-2,0.5c-0.6,0.3-1,0.8-1.3,1.3c-0.5,0.8-0.7,1.7-0.7,2.9v13.5
				C248,202.6,248.3,203.6,248.7,204.4z"/>
			<path class="st1" d="M264.6,179.1h7.6c1.9,0,3.6,0.4,5.1,1.3c1.4,0.8,2.5,2,3.4,3.5c1.1,2,1.7,4.4,1.7,7.3v7.2
				c0,2.9-0.6,5.4-1.7,7.3c-0.9,1.5-2,2.7-3.4,3.5c-1.5,0.9-3.2,1.3-5.1,1.3h-7.6V179.1z M272.3,205.9c0.8,0,1.5-0.2,2.2-0.6
				c0.7-0.4,1.3-1,1.8-1.8c0.8-1.3,1.2-3,1.2-5.1v-7.2c0-2.1-0.4-3.8-1.2-5.1c-0.5-0.8-1-1.4-1.8-1.8c-0.7-0.4-1.4-0.6-2.2-0.6h-2.5
				v22.2H272.3z"/>
			<path class="st1" d="M287,179.1h16.5v4.6H292v7.5h8.8v4.6H292v10h11.5v4.6H287V179.1z"/>
			<path class="st1" d="M328.7,179.1h8.7c1.7,0,3.1,0.4,4.4,1.1c1.1,0.6,2,1.5,2.6,2.7c0.8,1.3,1.2,2.9,1.2,4.8c0,1.6-0.4,2.9-1,4
				c-0.5,1-1.3,1.8-2.3,2.3c0.1,0.1,0.3,0.2,0.4,0.2c1.2,0.7,2.1,1.6,2.7,2.7c0.7,1.2,1,2.6,1,4.3c0,2-0.4,3.7-1.2,5.1
				c-0.7,1.3-1.7,2.2-2.9,2.9c-1.4,0.8-3.1,1.2-5,1.2h-8.7V179.1z M337.4,191.8c0.5,0,1-0.1,1.4-0.4c0.4-0.2,0.8-0.6,1-1.1
				c0.4-0.7,0.6-1.6,0.6-2.6c0-1.1-0.2-1.9-0.6-2.6c-0.3-0.5-0.7-0.8-1.1-1.1c-0.4-0.2-0.9-0.4-1.4-0.4h-3.6v8.2H337.4z
				 M337.4,205.9c0.8,0,1.4-0.2,2-0.5s1-0.8,1.4-1.4c0.4-0.8,0.6-1.7,0.6-2.8c0-1.1-0.2-2.1-0.7-2.9c-0.3-0.6-0.8-1-1.3-1.3
				c-0.6-0.3-1.2-0.5-2-0.5h-3.6v9.4H337.4z"/>
			<path class="st1" d="M351.1,179.1h5.1v26.8h11.8v4.6h-16.9V179.1z"/>
			<path class="st1" d="M374.2,205.9h3.4v-22.2h-3.4v-4.6h12v4.6h-3.4v22.2h3.4v4.6h-12V205.9z"/>
			<path class="st1" d="M392.8,179.1h5.5l7.7,23.5c-0.1-0.5-0.1-1-0.2-1.6c-0.4-3.4-0.6-6.5-0.6-9.4v-12.6h5.1v31.4h-5.5l-7.7-23.5
				c0.1,0.5,0.1,1,0.2,1.6c0.4,3.4,0.6,6.5,0.6,9.4v12.6h-5.1V179.1z"/>
			<path class="st1" d="M414.2,179.1h7.6c1.9,0,3.6,0.4,5.1,1.3c1.4,0.8,2.5,2,3.4,3.5c1.1,2,1.7,4.4,1.7,7.3v7.2
				c0,2.9-0.6,5.4-1.7,7.3c-0.9,1.5-2,2.7-3.4,3.5c-1.5,0.9-3.2,1.3-5.1,1.3h-7.6V179.1z M421.8,205.9c0.8,0,1.5-0.2,2.2-0.6
				c0.7-0.4,1.3-1,1.8-1.8c0.8-1.3,1.2-3,1.2-5.1v-7.2c0-2.1-0.4-3.8-1.2-5.1c-0.5-0.8-1-1.4-1.8-1.8c-0.7-0.4-1.4-0.6-2.2-0.6h-2.5
				v22.2H421.8z"/>
			<path class="st1" d="M457.8,213.5c2.2,0,3.9-0.4,5.1-1.1c0.6-0.3,1.1-0.8,1.4-1.3c0.2-0.4,0.3-0.9,0.3-1.4c0-0.7-0.3-1.9-1-3.5
				c-0.9-2.2-1.4-4-1.4-5.3c0-1.5,0.3-2.7,0.9-3.8c0.5-0.9,1.2-1.6,2-2.3c-0.9-0.7-1.5-1.4-2-2.3c-0.7-1.1-1-2.3-0.9-3.8
				c0-1.3,0.4-3.1,1.4-5.3c0.7-1.6,1-2.7,1-3.5c0-0.5-0.1-1-0.3-1.4c-0.3-0.5-0.8-0.9-1.4-1.3c-1.3-0.7-3-1.1-5.1-1.1v-4.6
				c3.3,0,6,0.6,8,1.8c1.4,0.8,2.4,1.8,3.1,2.9c0.6,1,0.9,2.2,0.9,3.6c0,1.4-0.5,3.2-1.4,5.4c-0.7,1.6-1,2.7-0.9,3.4
				c0,0.5,0.1,1,0.3,1.5c0.3,0.5,0.8,1,1.4,1.3c1.1,0.6,2.5,0.9,4.3,0.9h0v4.6h-0.1c-1.8,0-3.2,0.3-4.3,0.9
				c-0.6,0.4-1.1,0.8-1.4,1.3c-0.3,0.5-0.4,1-0.3,1.5c0,0.7,0.3,1.9,0.9,3.4c0.9,2.2,1.4,4,1.4,5.4c0,1.4-0.3,2.6-0.9,3.6
				c-0.7,1.2-1.7,2.2-3.1,2.9c-2.1,1.2-4.8,1.8-8,1.8V213.5z"/>
		</g>
		<g class="st0">
			<path class="st2" d="M8,26.6l21.1-0.1l0.2,51.9C37.4,68.1,44.1,58.2,49.4,49c5.7-9.9,8.6-17.4,8.5-22.5l22.2-0.1
				c0,5.5-2.9,13.4-8.7,23.6c-4.9,8.5-10.8,17.3-17.7,26.4c18.8,39.2,28.2,65.6,28.2,79.2l-21.1,0.1c0-11.3-6.6-32.5-19.7-63.8
				c-3.7,4.4-7.7,8.8-11.7,13.2l0.2,50.7l-21.1,0.1L8,26.6z"/>
		</g>
		<g class="st0">
		</g>
		<g class="st0">
			<path class="st2" d="M222.5,25.9l31.5-0.1c7.9,0,14.8,1.7,20.9,5.2c5.8,3.3,10.5,8.1,14.1,14.4c4.7,8.1,7.1,18.1,7.1,30.1
				l0.1,29.5c0,12.1-2.3,22.2-6.9,30.3c-3.6,6.3-8.3,11.2-14,14.5c-6.1,3.5-13.1,5.3-20.9,5.3l-31.5,0.1L222.5,25.9z M254.3,136.1
				c3.3,0,6.3-0.8,9-2.3c2.9-1.8,5.3-4.3,7.2-7.6c3.1-5.4,4.7-12.4,4.7-21.1L275,75.5c0-8.6-1.6-15.5-4.8-20.9
				c-1.9-3.3-4.3-5.8-7.2-7.5c-2.7-1.5-5.7-2.3-9-2.3l-10.4,0l0.3,91.3L254.3,136.1z"/>
			<path class="st2" d="M314.5,25.6l68.1-0.2l0.1,19l-47.1,0.2l0.1,31l36.4-0.1l0.1,19l-36.4,0.1l0.1,41.3l47.1-0.2l0.1,19
				l-68.1,0.2L314.5,25.6z"/>
			<path class="st2" d="M398.3,25.3l31.5-0.1c7.9,0,14.8,1.7,20.9,5.2c5.8,3.3,10.5,8.1,14.1,14.4c4.7,8.1,7.1,18.1,7.1,30.1
				l0.1,29.5c0,12.1-2.3,22.2-6.9,30.3c-3.6,6.3-8.3,11.2-14,14.5c-6.1,3.5-13.1,5.3-20.9,5.3l-31.5,0.1L398.3,25.3z M430.2,135.5
				c3.3,0,6.3-0.8,9-2.3c2.9-1.8,5.3-4.3,7.2-7.6c3.1-5.4,4.7-12.4,4.7-21.1l-0.1-29.5c0-8.6-1.6-15.5-4.8-20.9
				c-1.9-3.3-4.3-5.8-7.2-7.5c-2.7-1.5-5.7-2.3-9-2.3l-10.4,0l0.3,91.3L430.2,135.5z"/>
		</g>
		<g class="st0">
			<path class="st1" d="M92.7,83.6c2.5,0,4.9-0.3,6.9-0.7c2.1-0.5,3.9-1.2,5.5-2.1c1.8-1.1,3.1-2.4,4-3.8c0.7-1.3,1-2.8,1-4.3
				c0.1-2-0.9-5.3-2.8-9.8c-2.7-6.2-4.1-11.4-4.2-15.5c0-3.9,0.8-7.4,2.5-10.3c1.9-3.5,4.9-6.3,8.8-8.5c6-3.6,13.6-5.4,23.1-5.4
				l0.1,0l0.1,13.3l-0.1,0c-6.2,0-11.1,1.1-14.7,3.3c-1.8,1-3.1,2.2-4,3.7c-0.6,1.2-1,2.5-1,3.9c0,2,1,5.4,2.9,9.9
				c2.7,6.4,4.1,11.5,4,15.3c0.1,4.2-0.8,7.8-2.6,11c-1.4,2.5-3.3,4.7-5.7,6.6c2.5,1.9,4.4,4,5.8,6.5c1.9,3.1,2.8,6.7,2.8,10.9
				c0.1,3.9-1.2,9-3.8,15.4c-1.9,4.6-2.8,7.9-2.8,10c0,1.5,0.3,2.8,1,3.9c0.9,1.5,2.3,2.7,4.1,3.7c3.6,2.1,8.5,3.1,14.8,3.1l0.1,0
				l0.1,13.3l-0.1,0c-9.4,0.1-17.1-1.6-23.1-5.1c-3.9-2.2-6.9-5-8.9-8.4c-1.7-2.9-2.6-6.4-2.6-10.3c0-4.1,1.3-9.3,4-15.5
				c1.9-4.5,2.7-7.8,2.6-9.9c0.1-1.6-0.3-3-1-4.3c-0.9-1.5-2.3-2.7-4.1-3.8c-1.6-0.9-3.4-1.6-5.5-2c-2.1-0.4-4.4-0.6-6.9-0.6
				L92.7,83.6z"/>
		</g>
		<g class="st0">
			<path class="st1" d="M165.7,143.3c6.2,0,11.1-1.1,14.7-3.3c1.8-1,3.1-2.2,4-3.7c0.6-1.2,1-2.5,1-3.9c0-2-1-5.4-2.9-9.9
				c-2.7-6.4-4.1-11.5-4-15.3c-0.1-4.2,0.8-7.8,2.6-11c1.4-2.5,3.3-4.7,5.7-6.6c-2.5-1.9-4.4-4-5.8-6.5c-1.9-3.1-2.8-6.7-2.8-10.9
				c-0.1-3.8,1.2-9,3.8-15.4c1.9-4.6,2.8-7.9,2.8-10c0-1.5-0.3-2.8-1-3.9c-0.9-1.5-2.3-2.7-4.1-3.7c-3.6-2.1-8.5-3.1-14.8-3.1
				l-0.1-13.3c9.4-0.1,17.1,1.6,23.1,5.1c3.9,2.2,6.9,5,8.9,8.4c1.7,2.9,2.6,6.4,2.6,10.3c0,4.1-1.3,9.3-4,15.5
				c-1.9,4.5-2.7,7.8-2.6,9.8c-0.1,1.6,0.3,3,1,4.3c0.9,1.5,2.3,2.7,4.1,3.8c3.1,1.8,7.3,2.7,12.4,2.6l0.1,0l0.1,13.3l-0.2,0
				c-5.1,0-9.2,1-12.3,2.8c-1.8,1.1-3.1,2.4-4,3.8c-0.7,1.3-1,2.8-1,4.3c-0.1,2,0.9,5.3,2.8,9.8c2.7,6.2,4.1,11.4,4.2,15.5
				c0,3.9-0.8,7.4-2.5,10.3c-1.9,3.5-4.9,6.3-8.8,8.5c-6,3.6-13.6,5.4-23.1,5.4L165.7,143.3z"/>
		</g>
		<path class="st3" d="M459.7,0.4c-1.2,0.4-2.3,1.1-3.2,2c-0.2,0.2-0.4,0.4-0.5,0.6c-0.2-0.2-0.3-0.4-0.5-0.6c-0.9-0.9-2-1.6-3.2-2
			c-1.3-0.3-2.7-0.4-4.1-0.4h-3.5v3.6h1.9c1.2,0,2.4,0,3.5,0.2c0.7,0.1,1.4,0.5,2,1c0.6,0.6,1,1.4,1.3,2.2c0.3,0.8,0.4,1.7,0.4,2.5
			c0,0.9-0.1,1.8-0.4,2.7c-0.2,0.8-0.6,1.5-1.1,2.1c-0.5,0.4-1.1,0.7-1.7,0.9c-0.9,0.2-1.7,0.2-2.6,0.2h-3.2V19h3.8
			c1.3,0,2.6-0.1,3.8-0.5c1.1-0.3,2.1-0.9,3-1.7c0.3-0.3,0.5-0.5,0.7-0.8c0.2,0.3,0.5,0.6,0.7,0.8c0.9,0.8,1.9,1.4,3,1.7
			c1.2,0.3,2.5,0.5,3.8,0.4h3.8v-3.6h-1.9c-1.2,0-2.4,0-3.5-0.2c-0.7-0.1-1.4-0.4-2-0.9c-0.6-0.5-1.1-1.2-1.4-1.9
			c-0.1-0.4-0.2-0.8-0.2-1.1h9V7.8h-9c0-0.4,0.1-0.8,0.2-1.2c0.3-0.8,0.7-1.4,1.3-1.9c0.6-0.5,1.3-0.8,2-0.9
			c1.2-0.2,2.3-0.3,3.5-0.2h1.9V0h-3.5C462.4,0,461,0.1,459.7,0.4"/>
		<g class="st0">
			<path class="st3" d="M359.8,4.4l2,0l0,5l2.8,0l0-5l2,0l0,12.1l-2,0l0-5.3l-2.8,0l0,5.3l-2,0L359.8,4.4z"/>
			<path class="st3" d="M368.3,5.8c0.3-0.5,0.7-0.8,1.1-1.1c0.5-0.3,1.2-0.5,1.9-0.5c0.7,0,1.4,0.1,1.9,0.5c0.5,0.3,0.9,0.6,1.1,1.1
				c0.3,0.6,0.5,1.2,0.5,2l0,5.2c0,0.8-0.2,1.4-0.5,2c-0.3,0.5-0.7,0.8-1.1,1.1c-0.5,0.3-1.2,0.5-1.9,0.5c-0.7,0-1.4-0.1-1.9-0.5
				c-0.5-0.3-0.9-0.6-1.1-1.1c-0.3-0.6-0.5-1.2-0.5-2l0-5.2C367.9,7,368,6.4,368.3,5.8z M370.1,14.1c0.1,0.2,0.3,0.4,0.5,0.5
				s0.5,0.2,0.8,0.2c0.3,0,0.5-0.1,0.8-0.2s0.4-0.3,0.5-0.5c0.2-0.3,0.3-0.7,0.3-1.1l0-5.2c0-0.4-0.1-0.8-0.3-1.1
				c-0.1-0.2-0.3-0.4-0.5-0.5c-0.2-0.1-0.5-0.2-0.8-0.2c-0.3,0-0.5,0.1-0.8,0.2s-0.4,0.3-0.5,0.5c-0.2,0.3-0.3,0.7-0.3,1.1l0,5.2
				C369.8,13.4,369.9,13.8,370.1,14.1z"/>
			<path class="st3" d="M378.1,13.5C378.1,13.5,378.1,13.5,378.1,13.5c0,0.3,0.1,0.4,0.2,0.6c0.1,0.2,0.2,0.3,0.4,0.4
				c0.2,0.1,0.5,0.2,0.8,0.2c0.3,0,0.6-0.1,0.8-0.2c0.2-0.1,0.3-0.3,0.5-0.5c0.1-0.2,0.2-0.4,0.2-0.7c0-0.3-0.1-0.6-0.2-0.9
				c-0.3-0.4-0.8-0.9-1.7-1.4c-1.2-0.7-1.9-1.4-2.3-2c-0.3-0.5-0.5-1.1-0.5-1.7c0-0.6,0.1-1.1,0.4-1.6c0.3-0.4,0.6-0.8,1.1-1.1
				c0.5-0.3,1.2-0.5,1.9-0.5c0.8,0,1.4,0.2,2,0.5c0.4,0.3,0.8,0.6,1,1c0.2,0.4,0.3,0.8,0.4,1.2l-1.9,0.4c0,0,0,0,0,0
				c0-0.2-0.1-0.4-0.2-0.6c-0.1-0.2-0.2-0.3-0.4-0.4C380.3,6,380,6,379.6,6c-0.3,0-0.6,0.1-0.8,0.2c-0.2,0.1-0.3,0.3-0.5,0.5
				c-0.1,0.2-0.2,0.4-0.2,0.7c0,0.3,0.1,0.6,0.3,0.9c0.3,0.4,0.8,0.9,1.7,1.4c1.2,0.7,1.9,1.4,2.3,2c0.3,0.5,0.5,1.1,0.5,1.7
				s-0.1,1.1-0.4,1.6c-0.3,0.4-0.6,0.8-1.1,1.1c-0.5,0.3-1.2,0.5-1.9,0.5c-0.8,0-1.4-0.2-2-0.5c-0.4-0.3-0.8-0.6-1-1
				c-0.2-0.4-0.3-0.8-0.4-1.2L378.1,13.5z"/>
			<path class="st3" d="M384.4,4.3l6.7,0l0,1.8l-2.4,0l0,10.3l-2,0l0-10.3l-2.4,0L384.4,4.3z"/>
			<path class="st3" d="M393,4.3l6.4,0l0,1.8L395,6l0,2.9l3.4,0l0,1.8l-3.4,0l0,3.9l4.4,0l0,1.8l-6.4,0L393,4.3z"/>
			<path class="st3" d="M400.8,4.3l2.9,0c0.7,0,1.4,0.2,2,0.5c0.5,0.3,1,0.8,1.3,1.3c0.4,0.8,0.7,1.7,0.7,2.8l0,2.8
				c0,1.1-0.2,2.1-0.6,2.8c-0.3,0.6-0.8,1-1.3,1.4c-0.6,0.3-1.2,0.5-2,0.5l-2.9,0L400.8,4.3z M403.8,14.5c0.3,0,0.6-0.1,0.8-0.2
				c0.3-0.2,0.5-0.4,0.7-0.7c0.3-0.5,0.4-1.2,0.4-2l0-2.8c0-0.8-0.2-1.5-0.4-2c-0.2-0.3-0.4-0.5-0.7-0.7c-0.3-0.1-0.5-0.2-0.8-0.2
				l-1,0l0,8.5L403.8,14.5z"/>
			<path class="st3" d="M417.3,4.2l3.4,0c0.6,0,1.2,0.1,1.7,0.4c0.4,0.2,0.8,0.6,1,1c0.3,0.5,0.5,1.1,0.5,1.9c0,0.6-0.1,1.1-0.4,1.5
				c-0.2,0.4-0.5,0.7-0.9,0.9c0.1,0,0.1,0.1,0.2,0.1c0.5,0.3,0.8,0.6,1.1,1c0.3,0.4,0.4,1,0.4,1.6c0,0.8-0.2,1.4-0.5,2
				c-0.3,0.5-0.6,0.9-1.1,1.1c-0.5,0.3-1.2,0.5-1.9,0.5l-3.4,0L417.3,4.2z M420.6,9.1c0.2,0,0.4,0,0.5-0.1c0.2-0.1,0.3-0.2,0.4-0.4
				c0.2-0.3,0.2-0.6,0.2-1c0-0.4-0.1-0.7-0.2-1c-0.1-0.2-0.3-0.3-0.4-0.4C421,6,420.8,6,420.6,6l-1.4,0l0,3.1L420.6,9.1z
				 M420.7,14.5c0.3,0,0.5-0.1,0.8-0.2c0.2-0.1,0.4-0.3,0.5-0.5c0.2-0.3,0.2-0.7,0.2-1.1c0-0.4-0.1-0.8-0.3-1.1
				c-0.1-0.2-0.3-0.4-0.5-0.5c-0.2-0.1-0.5-0.2-0.8-0.2l-1.4,0l0,3.6L420.7,14.5z"/>
			<path class="st3" d="M425.5,4.2l2,0l0,0.7c0,1.1,0.3,2.2,0.9,3.3l0.5,1.1l0.5-1.1c0.6-1.1,0.8-2.2,0.8-3.3l0-0.7l2,0l0,0.7
				c0,1.3-0.3,2.7-1,4.1l-1.3,2.6l0,4.6l-2,0l0-4.6L426.5,9c-0.7-1.4-1.1-2.8-1.1-4.1L425.5,4.2z"/>
		</g>
	</g>
</g>
</svg>
